<svg xmlns="http://www.w3.org/2000/svg" enable-background="new 0 0 50 50" viewBox="0 0 50 50" id="online-guarantee"><path d="M47.03003 15.10498c0-1.65997-1.34009-3-3-3h-8.1001c-.1001.33002-.22998.66003-.39014.98004.32007.65997.52002 1.32996.61011 2.01996h7.88013V35.125H5.97998V15.10498h7.87988c.09009-.67999.29004-1.35999.61011-2.01996-.16016-.32001-.29004-.65002-.39014-.98004H5.97998c-1.66016 0-3 1.34003-3 3V38.125h44.05005V15.10498zM48 40.125H2c-.55005 0-1 .45001-1 1v.71002c0 2.76001 2.25 5 5 5h38c2.76001 0 5-2.23999 5-5V41.125C49 40.57501 48.55981 40.125 48 40.125z"></path><path d="M26.63647,14.72565c0.90137-0.90186,0.90137-2.36914,0-3.271c-0.89502-0.89606-2.35864-0.91083-3.27051,0
		c-0.90332,0.9043-0.90527,2.36481,0,3.271C24.24097,15.59918,25.76343,15.60114,26.63647,14.72565z"></path><path d="M16.28979 17.83502c1.49243 2.93054 4.50684 2.34003 4.61011 2.35999.08374.10071 1.0918 2.82001 4.1001 2.82001 3.13696 0 4.0166-2.71973 4.09985-2.82001.1001-.01929 3.12842.58533 4.61011-2.35999 1.34766-2.65985-.47095-4.6499-.51001-4.75.03857-.1001 1.85449-2.10492.51001-4.73999-1.50732-2.96002-4.50854-2.34045-4.61011-2.36005C29.01636 5.88422 28.0083 3.16498 25 3.16498c-3.1189 0-4.01709 2.71997-4.1001 2.82001-.1001.01929-3.11108-.58386-4.61011 2.36005-1.33398 2.61469.47168 4.63995.51025 4.73999C16.76147 13.185 14.96655 15.24127 16.28979 17.83502zM21.9519 10.04059c1.68311-1.68414 4.41382-1.68689 6.09863 0 1.68164 1.68164 1.68164 4.41748 0 6.09912-.81348.81445-1.89648 1.26318-3.04883 1.26318s-2.23535-.44824-3.0498-1.26318C20.26514 14.45288 20.26636 11.72601 21.9519 10.04059zM16.09985 27.96503c2.02002-.67999 3.84009-.06 5.66016 1.90997.27622.30542.69714.39447 1.00977.28998.36011-.10999.64014-.40997.71021-.77997l.80981-4.40997c-1.83984-.20001-3.41992-1.17004-4.52979-2.76001-.90015-.06-1.74023-.28003-2.47998-.67004l-2.40015 5.04004C14.49543 27.37558 15.25628 28.25372 16.09985 27.96503zM30.26001 22.21503c-1.07007 1.59998-2.66016 2.57001-4.54004 2.76001l.81006 4.40997c.06982.40002.37988.71002.77002.79999.47853.0686.82154-.114 1.02979-.40997 1.33008-1.90002 3.11011-2.45001 5.64014-1.79004.81098.21356 1.51076-.61016 1.15991-1.39996l-2.3999-5.03003C31.98999 21.935 31.1499 22.15503 30.26001 22.21503z"></path></svg>