<svg xmlns="http://www.w3.org/2000/svg" viewBox="0 0 32 32" id="verify"><path d="M30.504,15.361c.912-1.441,.534-3.34-.859-4.321-.376-.265-.568-.728-.489-1.181,.292-1.682-.783-3.291-2.448-3.663-.448-.101-.803-.455-.903-.903-.372-1.665-1.984-2.737-3.664-2.448-.451,.079-.915-.113-1.18-.489-.98-1.394-2.88-1.774-4.321-.859-.389,.246-.891,.246-1.277,0-1.442-.915-3.341-.534-4.321,.859-.265,.375-.727,.566-1.181,.489-1.679-.29-3.291,.782-3.663,2.448-.101,.448-.455,.803-.903,.903-1.665,.372-2.74,1.981-2.448,3.664,.079,.452-.113,.915-.489,1.18-1.394,.981-1.771,2.88-.859,4.321,.246,.388,.246,.89,0,1.277-.912,1.441-.534,3.34,.859,4.321,.376,.265,.568,.728,.489,1.181-.292,1.682,.783,3.291,2.448,3.663,.448,.101,.803,.455,.903,.903,.372,1.666,1.987,2.741,3.664,2.448,.449-.078,.914,.112,1.18,.489,.981,1.394,2.879,1.773,4.321,.859,.389-.246,.891-.246,1.277,0,.53,.336,1.123,.497,1.708,.497,1.006,0,1.993-.476,2.613-1.356,.265-.376,.722-.571,1.181-.489,1.679,.29,3.291-.782,3.663-2.448,.101-.448,.455-.803,.903-.903,1.665-.372,2.74-1.981,2.448-3.664-.079-.452,.113-.915,.489-1.18,1.394-.981,1.771-2.88,.859-4.321-.246-.388-.246-.89,0-1.277Zm-1.689,2.348c.341,.539,.199,1.249-.322,1.616-1.005,.708-1.519,1.947-1.308,3.157,.109,.629-.293,1.23-.915,1.37-1.199,.269-2.148,1.218-2.417,2.417-.14,.623-.752,1.023-1.369,.915-1.21-.209-2.449,.304-3.158,1.308-.368,.522-1.078,.662-1.616,.322-.52-.329-1.114-.493-1.709-.493s-1.189,.164-1.709,.493c-.538,.34-1.248,.2-1.616-.322-.708-1.006-1.954-1.519-3.157-1.308-.634,.107-1.23-.293-1.37-.915-.269-1.199-1.218-2.148-2.417-2.417-.622-.14-1.024-.741-.915-1.369,.211-1.211-.303-2.45-1.308-3.158-.521-.367-.663-1.077-.322-1.616,.658-1.038,.658-2.38,0-3.418-.341-.539-.199-1.249,.322-1.616,1.005-.708,1.519-1.947,1.308-3.157-.109-.629,.293-1.23,.915-1.37,1.199-.269,2.148-1.218,2.417-2.417,.14-.623,.753-1.022,1.369-.915,1.214,.212,2.45-.303,3.158-1.308,.368-.522,1.078-.662,1.616-.322,1.039,.658,2.379,.658,3.418,0,.538-.34,1.248-.2,1.616,.322,.708,1.005,1.949,1.518,3.157,1.308,.637-.104,1.231,.294,1.37,.915,.269,1.199,1.218,2.148,2.417,2.417,.622,.14,1.024,.741,.915,1.369-.211,1.211,.303,2.45,1.308,3.158,.521,.367,.663,1.077,.322,1.616-.658,1.038-.658,2.38,0,3.418Zm-5.086-6.395c.378,.402,.359,1.035-.043,1.414l-8.5,8c-.192,.181-.438,.271-.686,.271-.237,0-.475-.084-.664-.253l-4.5-4c-.413-.366-.45-.999-.083-1.411,.366-.414,.998-.452,1.411-.083l3.816,3.392,7.834-7.373c.402-.378,1.034-.359,1.414,.043Z"></path></svg>